<svg width="25" height="24" viewBox="0 0 25 24" fill="none" xmlns="http://www.w3.org/2000/svg">
<g clip-path="url(#clip0_527_198)">
<path d="M15.9495 3.7803C15.9095 4.0303 15.8895 4.2803 15.8895 4.5303C15.8895 6.7803 17.7095 8.5993 19.9495 8.5993C20.1995 8.5993 20.4395 8.5703 20.6895 8.5303V16.5993C20.6895 19.9903 18.6895 22.0003 15.2895 22.0003H7.90051C4.49951 22.0003 2.49951 19.9903 2.49951 16.5993V9.2003C2.49951 5.8003 4.49951 3.7803 7.90051 3.7803H15.9495ZM16.1505 9.8603C15.8795 9.8303 15.6105 9.9503 15.4495 10.1703L13.0305 13.3003L10.2595 11.1203C10.0895 10.9903 9.88951 10.9393 9.68951 10.9603C9.49051 10.9903 9.31051 11.0993 9.18951 11.2593L6.23051 15.1103L6.16951 15.2003C5.99951 15.5193 6.07951 15.9293 6.37951 16.1503C6.51951 16.2403 6.66951 16.3003 6.83951 16.3003C7.07051 16.3103 7.28951 16.1893 7.42951 16.0003L9.93951 12.7693L12.7895 14.9103L12.8795 14.9693C13.1995 15.1393 13.5995 15.0603 13.8295 14.7593L16.7195 11.0303L16.6795 11.0503C16.8395 10.8303 16.8695 10.5503 16.7595 10.3003C16.6505 10.0503 16.4095 9.8803 16.1505 9.8603ZM20.0896 2C21.4196 2 22.4996 3.08 22.4996 4.41C22.4996 5.74 21.4196 6.82 20.0896 6.82C18.7596 6.82 17.6796 5.74 17.6796 4.41C17.6796 3.08 18.7596 2 20.0896 2Z" fill="white"/>
</g>
<defs>
<clipPath id="clip0_527_198">
<rect width="24" height="24" fill="white" transform="translate(0.5)"/>
</clipPath>
</defs>
</svg>
