<svg width="25" height="24" viewBox="0 0 25 24" fill="none" xmlns="http://www.w3.org/2000/svg">
<g clip-path="url(#clip0_413_186)">
<path d="M18.4184 14.3201C18.1594 14.5711 18.0404 14.9341 18.0994 15.2901L18.9884 20.2101C19.0634 20.6271 18.8874 21.0491 18.5384 21.2901C18.1964 21.5401 17.7414 21.5701 17.3684 21.3701L12.9394 19.0601C12.7854 18.9781 12.6144 18.9341 12.4394 18.9291H12.1684C12.0744 18.9431 11.9824 18.9731 11.8984 19.0191L7.46839 21.3401C7.24939 21.4501 7.00139 21.4891 6.75839 21.4501C6.16639 21.3381 5.77139 20.7741 5.86839 20.1791L6.75839 15.2591C6.81739 14.9001 6.69839 14.5351 6.43939 14.2801L2.82839 10.7801C2.52639 10.4871 2.42139 10.0471 2.55939 9.65012C2.69339 9.25412 3.03539 8.96512 3.44839 8.90012L8.41839 8.17912C8.79639 8.14012 9.12839 7.91012 9.29839 7.57012L11.4884 3.08012C11.5404 2.98012 11.6074 2.88812 11.6884 2.81012L11.7784 2.74012C11.8254 2.68812 11.8794 2.64512 11.9394 2.61012L12.0484 2.57012L12.2184 2.50012H12.6394C13.0154 2.53912 13.3464 2.76412 13.5194 3.10012L15.7384 7.57012C15.8984 7.89712 16.2094 8.12412 16.5684 8.17912L21.5384 8.90012C21.9584 8.96012 22.3094 9.25012 22.4484 9.65012C22.5794 10.0511 22.4664 10.4911 22.1584 10.7801L18.4184 14.3201Z" fill="white"/>
</g>
<defs>
<clipPath id="clip0_413_186">
<rect width="24" height="24" fill="white" transform="translate(0.5)"/>
</clipPath>
</defs>
</svg>
