<svg width="25" height="24" viewBox="0 0 25 24" fill="none" xmlns="http://www.w3.org/2000/svg">
<g clip-path="url(#clip0_413_204)">
<path d="M10.3452 15.2125C14.412 15.2125 17.8452 15.8816 17.8452 18.466C17.8452 21.0504 14.39 21.6973 10.3452 21.6973C6.27842 21.6973 2.84521 21.0271 2.84521 18.4437C2.84521 15.8593 6.29944 15.2125 10.3452 15.2125ZM19.8442 7.69727C20.3404 7.69727 20.7432 8.10671 20.7432 8.60888V9.78513H21.9462C22.4414 9.78513 22.8452 10.1946 22.8452 10.6967C22.8452 11.1989 22.4414 11.6084 21.9462 11.6084H20.7432V12.7856C20.7432 13.2878 20.3404 13.6973 19.8442 13.6973C19.349 13.6973 18.9452 13.2878 18.9452 12.7856V11.6084H17.7442C17.248 11.6084 16.8452 11.1989 16.8452 10.6967C16.8452 10.1946 17.248 9.78513 17.7442 9.78513H18.9452V8.60888C18.9452 8.10671 19.349 7.69727 19.8442 7.69727ZM10.3452 2.69727C13.0998 2.69727 15.3078 4.9339 15.3078 7.72411C15.3078 10.5143 13.0998 12.7509 10.3452 12.7509C7.59064 12.7509 5.38258 10.5143 5.38258 7.72411C5.38258 4.9339 7.59064 2.69727 10.3452 2.69727Z" fill="white"/>
</g>
<defs>
<clipPath id="clip0_413_204">
<rect width="24" height="24" fill="white" transform="translate(0.5)"/>
</clipPath>
</defs>
</svg>
