<svg width="48" height="48" viewBox="0 0 48 48" fill="none" xmlns="http://www.w3.org/2000/svg">
<circle cx="24" cy="24" r="24" fill="white" fill-opacity="0.1"/>
<path d="M33 20.5C33 22.43 31.43 24 29.5 24C27.57 24 26 22.43 26 20.5C26 18.57 27.57 17 29.5 17C31.43 17 33 18.57 33 20.5ZM31 25.79C30.5 25.92 30 26 29.5 26C28.0421 25.9974 26.6447 25.4171 25.6138 24.3862C24.583 23.3553 24.0026 21.9579 24 20.5C24 19.03 24.58 17.7 25.5 16.71C25.3185 16.4875 25.0897 16.3084 24.8302 16.1855C24.5707 16.0627 24.2871 15.9993 24 16C22.9 16 22 16.9 22 18V18.29C19.03 19.17 17 21.9 17 25V31L15 33V34H33V33L31 31V25.79ZM24 37C25.11 37 26 36.11 26 35H22C22 35.5304 22.2107 36.0391 22.5858 36.4142C22.9609 36.7893 23.4696 37 24 37Z" fill="white"/>
<circle cx="29.5" cy="20.5" r="3.5" fill="#FF3A3A"/>
</svg>
